<svg id="Layer_1" data-name="Layer 1" xmlns="http://www.w3.org/2000/svg" xmlns:xlink="http://www.w3.org/1999/xlink" viewBox="0 0 144 116.57"><defs><style>.cls-1{fill:none;}.cls-2{clip-path:url(#clip-path);}.cls-3{fill:#414042;}.cls-4{fill:#4d4d4f;}</style><clipPath id="clip-path"><path class="cls-1" d="M163.23,51.14A78.14,78.14,0,1,1,85.09-27,78.14,78.14,0,0,1,163.23,51.14Z"/></clipPath></defs><title>the_romantic_era_square</title><g class="cls-2"><path class="cls-3" d="M125.83,14.9H9.14L6,23.61H108.84c-3.27,5.06-12.47,15.86-16,20.83h10.73C104.79,42.75,121.55,21.12,125.83,14.9Z"/><path class="cls-3" d="M111.28,67a23.37,23.37,0,0,1-2,9.65,26.27,26.27,0,0,1-5.47,8A25.91,25.91,0,0,1,95.68,90a24.36,24.36,0,0,1-9.81,2,22.56,22.56,0,0,1-10.29-2.33,23.12,23.12,0,0,1-7.88-6.35L60.78,90A34.78,34.78,0,0,0,72,98.17a34,34,0,0,0,27.42.32,36.26,36.26,0,0,0,11-7.4,34.61,34.61,0,0,0,7.48-10.86A32.34,32.34,0,0,0,120.61,67a34.24,34.24,0,0,0-.68-6.8h-9.59A24.87,24.87,0,0,1,111.28,67Z"/><path class="cls-4" d="M125.83,14.9H15.75l-3.58,8.71h96.67c-3.27,5.06-12.48,15.86-16,20.83h10.73C104.79,42.75,121.55,21.12,125.83,14.9Z"/><path class="cls-4" d="M111.28,67a23.37,23.37,0,0,1-2,9.65,26.28,26.28,0,0,1-5.47,8A25.76,25.76,0,0,1,95.68,90a24.53,24.53,0,0,1-9.81,2,22.63,22.63,0,0,1-10.3-2.33,23.31,23.31,0,0,1-7.88-6.35L60.78,90A34.78,34.78,0,0,0,72,98.17a34,34,0,0,0,27.42.32,36.26,36.26,0,0,0,11-7.4,34.61,34.61,0,0,0,7.48-10.86A32.5,32.5,0,0,0,120.61,67a35,35,0,0,0-.68-6.8h-9.59A24.87,24.87,0,0,1,111.28,67Z"/></g></svg>