<svg id="Layer_1" data-name="Layer 1" xmlns="http://www.w3.org/2000/svg" xmlns:xlink="http://www.w3.org/1999/xlink" viewBox="0 0 708.69 161.08"><defs><style>.cls-1{fill:none;}.cls-2{fill:#4d4d4f;}.cls-3{clip-path:url(#clip-path);}.cls-4{fill:#414042;}</style><clipPath id="clip-path"><path class="cls-1" d="M740.86,70.6A113.59,113.59,0,1,1,627.28-43,113.58,113.58,0,0,1,740.86,70.6Z"/></clipPath></defs><title>the_romantic_era_square</title><path class="cls-2" d="M22.25,54.5H15.44V51.41l6.9-.36.54-12.61h3.45V51.05H38.94V54.5H26.33V82.9c0,5.53,1.36,9.25,7.35,9.25a14.67,14.67,0,0,0,5.44-1.35l1.09,3.26a24.51,24.51,0,0,1-7.08,1.63c-8.44,0-10.88-5.35-10.88-13.16Z"/><path class="cls-2" d="M49.55,29.37h4V57.86C58.08,53.32,62.62,50,68.6,50c9,0,13.16,5.44,13.16,16.69V94.6h-4V67.2c0-9.25-2.9-13.61-10-13.61-5.17,0-8.89,2.73-14.25,8.17V94.6h-4Z"/><path class="cls-2" d="M112.79,50c10.34,0,16.69,7.34,16.69,20.14a19.8,19.8,0,0,1-.18,3.26H97.91c.18,11,6.62,18.87,16.42,18.87a19.25,19.25,0,0,0,11.7-3.9l1.64,3.09c-3.45,2.08-7.35,4.26-13.7,4.26-11.16,0-20.15-8.53-20.15-22.77S103.08,50,112.79,50Zm12.88,20.31c0-11.15-5-16.86-12.79-16.86-7.44,0-14.07,6.43-15,16.86Z"/><path class="cls-2" d="M143,51.13h8.62l.73,7.9h.36c3.18-5.81,7.89-9,12.61-9a11.24,11.24,0,0,1,5.08.91L168.56,60a14.65,14.65,0,0,0-4.63-.72c-3.54,0-7.8,2.45-10.53,9.16V95.68H143Z"/><path class="cls-2" d="M194.14,50c11.16,0,21.23,8.54,21.23,23.41S205.3,96.77,194.14,96.77,173,88.24,173,73.45,183.07,50,194.14,50Zm0,38.2c6.53,0,10.52-5.9,10.52-14.79s-4-14.87-10.52-14.87-10.43,5.89-10.43,14.87S187.61,88.24,194.14,88.24Z"/><path class="cls-2" d="M225.71,51.13h8.62l.72,6.08h.37c3.72-4,8.07-7.17,13.61-7.17,6.53,0,10.25,3,12.34,8,4.26-4.54,8.71-8,14.33-8,9.44,0,13.79,6.45,13.79,17.7V95.68H279V69.09c0-7.34-2.18-10.06-6.81-10.06-2.81,0-5.89,1.81-9.34,5.53V95.68H252.38V69.09c0-7.34-2.17-10.06-6.89-10.06-2.72,0-5.9,1.81-9.35,5.53V95.68H225.71Z"/><path class="cls-2" d="M326.5,67.19c-.09-4.72-2.08-8.71-8.07-8.71-4.45,0-8.62,2-12.52,4.36l-3.81-7C307,52.76,313.26,50,320.33,50c11.16,0,16.61,6.81,16.61,19.24v26.4h-8.53l-.82-4.9h-.27c-4,3.36-8.53,6-13.79,6-7.81,0-13.25-5.27-13.25-13.06C300.28,74.18,308.27,69.18,326.5,67.19ZM316.79,88.6c3.63,0,6.45-1.82,9.71-4.89v-10c-12.06,1.54-16.05,4.71-16.05,9.16C310.45,86.88,313.07,88.6,316.79,88.6Z"/><path class="cls-2" d="M349.63,51.13h8.62l.73,6h.36c4-3.9,8.53-7.08,14.61-7.08,9.53,0,13.7,6.45,13.7,17.7V95.68H377.22V69.09c0-7.34-2.09-10.06-7-10.06-3.9,0-6.44,1.9-10.16,5.53V95.68H349.63Z"/><path class="cls-2" d="M402,59.39h-6.35V51.58l6.9-.45L403.79,39h8.71V51.13h11.35v8.26H412.5V80.62c0,5.26,2,7.8,6.27,7.8a12.63,12.63,0,0,0,4.62-1l1.82,7.72a28.4,28.4,0,0,1-9.08,1.63c-10.34,0-14.15-6.54-14.15-16.15Z"/><path class="cls-2" d="M432,37.43c0-3.54,2.72-6,6.44-6s6.44,2.45,6.44,6-2.72,5.9-6.44,5.9S432,40.88,432,37.43Zm1.18,13.7h10.43V95.68H433.19Z"/><path class="cls-2" d="M476.37,50a18.39,18.39,0,0,1,13.07,5.18l-5,6.62c-2.36-2.09-4.72-3.26-7.53-3.26-7.17,0-12.16,5.89-12.16,14.87s4.9,14.79,11.88,14.79c3.64,0,6.72-1.82,9.17-3.81l4.36,6.62a22.34,22.34,0,0,1-14.61,5.72c-12.16,0-21.51-8.53-21.51-23.32S464.49,50,476.37,50Z"/><path class="cls-2" d="M522.86,50c10.35,0,16.7,7.34,16.7,20.14a19.8,19.8,0,0,1-.18,3.26H508c.18,11,6.63,18.87,16.42,18.87a19.31,19.31,0,0,0,11.71-3.9l1.63,3.09c-3.44,2.08-7.35,4.26-13.7,4.26-11.16,0-20.14-8.53-20.14-22.77S513.15,50,522.86,50Zm12.89,20.31c0-11.15-5-16.86-12.79-16.86-7.45,0-14.07,6.43-15,16.86Z"/><path class="cls-2" d="M551.35,51.05h3.44l.37,8.08h.27c2.9-5.35,7.17-9.16,12.34-9.16a8.9,8.9,0,0,1,4.35.9l-.9,3.63a9.4,9.4,0,0,0-4-.72c-3.91,0-8.53,3-11.89,11.15V94.6h-4Z"/><path class="cls-2" d="M603.69,67.29c.19-6.62-1.72-13.79-10.25-13.79-5.89,0-11,2.91-13.88,5.08l-1.81-3c3.08-2.17,9.07-5.62,16.15-5.62,10.34,0,13.79,7.43,13.79,16.78V94.6h-3.36L603.88,89h-.19c-4.44,3.53-9.7,6.71-15.42,6.71-6.89,0-12.7-3.72-12.7-12C575.57,74.09,584.37,69.47,603.69,67.29ZM588.91,92.24c5,0,9.43-2.45,14.78-7.07V70.38c-17.87,2.08-24,6.26-24,13.15C579.74,89.79,583.92,92.24,588.91,92.24Z"/><g class="cls-3"><path class="cls-4" d="M686.5,17.93H516.86l-4.62,12.66H661.8c-4.75,7.35-18.14,23.05-23.19,30.27h15.6C655.91,58.41,680.27,27,686.5,17.93Z"/><path class="cls-4" d="M665.34,93.61a34,34,0,0,1-2.92,14,38.51,38.51,0,0,1-7.95,11.57,37.44,37.44,0,0,1-11.8,7.94,35.52,35.52,0,0,1-14.26,2.93,33,33,0,0,1-15-3.39A33.79,33.79,0,0,1,602,117.45L591.93,127A50.73,50.73,0,0,0,608.18,139a47.6,47.6,0,0,0,20.46,4.44,48.2,48.2,0,0,0,19.4-4,52.48,52.48,0,0,0,16-10.76,50.56,50.56,0,0,0,10.87-15.78,47.12,47.12,0,0,0,4-19.28,49.83,49.83,0,0,0-1-9.9H664A36.53,36.53,0,0,1,665.34,93.61Z"/><path class="cls-2" d="M686.5,17.93H516.86l-4.62,12.66H661.8c-4.75,7.35-18.14,23.05-23.19,30.27h15.6C655.91,58.41,680.27,27,686.5,17.93Z"/><path class="cls-2" d="M665.34,93.6a34.14,34.14,0,0,1-2.92,14,38.43,38.43,0,0,1-7.95,11.58,37.44,37.44,0,0,1-11.8,7.94,35.53,35.53,0,0,1-14.27,2.93,32.84,32.84,0,0,1-15-3.4A33.64,33.64,0,0,1,602,117.45L591.93,127A50.73,50.73,0,0,0,608.18,139a47.57,47.57,0,0,0,20.46,4.44,48.2,48.2,0,0,0,19.4-4,52.48,52.48,0,0,0,16-10.76,50.56,50.56,0,0,0,10.87-15.78,47.17,47.17,0,0,0,4-19.29,49.8,49.8,0,0,0-1-9.89H664A36.45,36.45,0,0,1,665.34,93.6Z"/></g></svg>