<?xml version="1.0" encoding="utf-8"?>
<!-- Generator: Adobe Illustrator 24.0.3, SVG Export Plug-In . SVG Version: 6.00 Build 0)  -->
<svg version="1.1" id="Layer_1" xmlns="http://www.w3.org/2000/svg" xmlns:xlink="http://www.w3.org/1999/xlink" x="0px" y="0px"
	 viewBox="0 0 842.6 918" style="enable-background:new 0 0 842.6 918;" xml:space="preserve">
<style type="text/css">
	.st0{fill:none;stroke:#E0D2C1;stroke-width:2;stroke-miterlimit:10;}
	.st1{fill:none;stroke:#E0D2C1;stroke-width:2;stroke-miterlimit:10;stroke-dasharray:8.4956,8.4956,8.4956,8.4956;}
	.st2{fill:none;stroke:#E0D2C1;stroke-width:2;stroke-miterlimit:10;stroke-dasharray:8.4956,8.4956,8.4956,8.4956,8.4956,8.4956;}
	.st3{fill:none;stroke:#E0D2C1;stroke-width:1.7327;stroke-miterlimit:10;}
	.st4{fill:none;stroke:#E0D2C1;stroke-width:1.7327;stroke-miterlimit:10;stroke-dasharray:8.5958,8.5958,8.5958,8.5958;}
	
		.st5{fill:none;stroke:#E0D2C1;stroke-width:1.7327;stroke-miterlimit:10;stroke-dasharray:8.5958,8.5958,8.5958,8.5958,8.5958,8.5958;}
	.st6{fill:none;stroke:#E0D2C1;stroke-width:1.7327;stroke-miterlimit:10;stroke-dasharray:8.5365,8.5365,8.5365,8.5365;}
	
		.st7{fill:none;stroke:#E0D2C1;stroke-width:1.7327;stroke-miterlimit:10;stroke-dasharray:8.5365,8.5365,8.5365,8.5365,8.5365,8.5365;}
	.st8{fill:#29333A;}
	.st9{fill:#FFFFFF;}
	.st10{fill:#E5E5E5;}
	.st11{fill:#FFFFFF;stroke:#E5E5E5;stroke-width:6;stroke-linecap:round;stroke-miterlimit:10;}
	.st12{fill:#BF9E6B;}
	.st13{fill:#BF9E6C;}
	.st14{fill:none;stroke:#A0BED1;stroke-width:6;stroke-linecap:round;stroke-miterlimit:10;}
	.st15{fill:none;stroke:#E5E5E5;stroke-width:6;stroke-linecap:round;stroke-miterlimit:10;}
	.st16{fill:none;stroke:#E5E5E5;stroke-width:4.7569;stroke-linecap:round;stroke-miterlimit:10;}
	.st17{fill:none;stroke:#E5E5E5;stroke-width:6;stroke-miterlimit:10;}
	.st18{fill:none;}
	.st19{font-family:'Montserrat-Bold';}
	.st20{font-size:24px;}
	.st21{fill:none;stroke:#E5E5E5;stroke-width:3;stroke-miterlimit:10;}
	.st22{fill:none;stroke:#E5E5E5;stroke-width:3;stroke-miterlimit:10;stroke-dasharray:10.0094,10.0094,10.0094,10.0094;}
	
		.st23{fill:none;stroke:#E5E5E5;stroke-width:3;stroke-miterlimit:10;stroke-dasharray:10.0094,10.0094,10.0094,10.0094,10.0094,10.0094;}
	.st24{fill:none;stroke:#29333A;stroke-width:6;stroke-miterlimit:10;}
</style>
<g>
	<g>
		<path class="st0" d="M763.9,435.1c-0.1-1.4-0.2-2.9-0.3-4.3"/>
		<path class="st1" d="M763,422.3c-0.9-9.9-2.2-19.8-3.9-29.5"/>
		<path class="st2" d="M758.3,388.7C727.3,223.7,581,98.9,405.2,98.9c-38.5,0-75.6,6-110.4,17.1"/>
		<path class="st0" d="M290.8,117.3c-1.4,0.5-2.7,0.9-4.1,1.4"/>
	</g>
</g>
<g>
	<g>
		<path class="st3" d="M563.7,772.6c1.3-0.6,2.6-1.3,3.9-1.9"/>
		<path class="st4" d="M575.2,766.8c8.9-4.7,17.6-9.7,26-15.1"/>
		<path class="st5" d="M604.8,749.4c42.2-27.7,77.4-63.8,104.5-106.6"/>
		<path class="st3" d="M711.7,639.2c0.8-1.2,1.5-2.5,2.3-3.7"/>
	</g>
</g>
<g>
	<g>
		<path class="st3" d="M155.2,199.1c-1,1-2.1,2-3.1,3"/>
		<path class="st6" d="M146.1,208.1c-6.9,7.1-13.6,14.6-19.9,22.3"/>
		<path class="st7" d="M123.5,233.7c-48.5,60.5-77.4,137-77.4,220.2c0,184.5,142.3,336.1,324.3,353.4"/>
		<path class="st3" d="M374.7,807.7c1.4,0.1,2.9,0.2,4.3,0.3"/>
	</g>
</g>
<g>
	<path class="st17" d="M347.5,254c-63,27.2-114,76.8-142.9,138.9"/>
	<path class="st17" d="M710.2,389.2c-28.7-59.3-77.7-106.9-138-133.8"/>
	<path class="st17" d="M564.2,770.1c47.4-19.4,89.4-52.5,119.6-93"/>
	<path class="st17" d="M226,667.2c29.8,44.3,71.9,79.5,121.4,100.9"/>
</g>
<g>
	<g>
		<g>
			<path class="st8" d="M168.5,126.5V76.1c0-20.9-16.3-38-36.8-39.3c-0.7-6.7-6.3-11.9-13.1-11.9c-1.4,0-2.6,1.2-2.6,2.6v14.8
				L91.1,74.6c-0.8,1-0.7,2.5,0.2,3.4l11.1,11.2c0.9,0.9,2.2,1,3.3,0.4l8.9-5.7h9.4c0.6,0,1.2,0,1.8-0.1v5.7c0,8.6-5,16.7-12.8,20.4
				c-0.9,0.4-1.5,1.4-1.5,2.4v14c-7.3,0.5-13,6.6-13,14v5.4c0,1.4,1.2,2.6,2.6,2.6h76c1.4,0,2.6-1.2,2.6-2.6v-5.4
				C179.9,133.4,175,127.7,168.5,126.5z M116.9,113.8c4.1-2.3,7.5-5.6,10-9.6c2.8-4.5,4.2-9.6,4.2-14.8v-7.4c0,0,0.1,0,0.1,0
				c4.8-2.6,7.8-7.7,7.8-13.1v-1.7c0-1.4-1.2-2.6-2.6-2.6s-2.6,1.2-2.6,2.6v1.7c0,3.6-1.9,6.8-5.1,8.5c-1.4,0.8-3,1.2-4.6,1.2h-10.2
				c-0.5,0-1,0.1-1.4,0.4l-7.7,5l-8-8l23.9-31.1c0.4-0.5,0.5-1,0.5-1.6V30.6c3.1,1.1,5.3,4,5.3,7.5V39c-0.1,0.6,0.1,1.2,0.4,1.7l0,0
				c0.6,0.8,1.5,1.3,2.5,1.2c18.7,0.2,33.8,15.4,33.8,34.2v50.2h-7.3v-19.6c0-1.4-1.2-2.6-2.6-2.6c-1.4,0-2.6,1.2-2.6,2.6v19.6
				h-33.7V113.8z M174.6,143h-70.7v-2.7c0-4.8,3.9-8.8,8.8-8.8h53.2c4.8,0,8.8,3.9,8.8,8.8V143z"/>
		</g>
	</g>
	<g>
		<g>
			<path class="st12" d="M126.5,57c-0.5-0.5-1.2-0.8-1.9-0.8s-1.4,0.3-1.9,0.8c-0.5,0.5-0.8,1.2-0.8,1.9c0,0.7,0.3,1.4,0.8,1.9
				c0.5,0.5,1.2,0.8,1.9,0.8c0.7,0,1.4-0.3,1.9-0.8c0.5-0.5,0.8-1.2,0.8-1.9C127.2,58.1,127,57.4,126.5,57z"/>
		</g>
	</g>
	<g>
		<g>
			<path class="st12" d="M155.1,96c-0.5-0.5-1.2-0.8-1.9-0.8c-0.7,0-1.4,0.3-1.9,0.8c-0.5,0.5-0.8,1.2-0.8,1.9
				c0,0.7,0.3,1.4,0.8,1.8c0.5,0.5,1.2,0.8,1.9,0.8c0.7,0,1.4-0.3,1.9-0.8c0.5-0.5,0.8-1.2,0.8-1.8C155.9,97.1,155.6,96.5,155.1,96z
				"/>
		</g>
	</g>
</g>
<g>
	<g>
		<path class="st8" d="M426.2,224.2c7.1,0,12.9-5.8,12.9-12.9c0-7.1-5.8-12.9-12.9-12.9s-12.9,5.8-12.9,12.9
			C413.3,218.5,419.1,224.2,426.2,224.2z M426.2,202.8c4.7,0,8.6,3.8,8.6,8.6c0,4.7-3.8,8.6-8.6,8.6c-4.7,0-8.6-3.8-8.6-8.6
			S421.4,202.8,426.2,202.8z"/>
		<path class="st8" d="M494.8,224.2c7.1,0,12.9-5.8,12.9-12.9c0-7.1-5.8-12.9-12.9-12.9c-7.1,0-12.9,5.8-12.9,12.9
			C481.9,218.5,487.7,224.2,494.8,224.2z M494.8,202.8c4.7,0,8.6,3.8,8.6,8.6c0,4.7-3.8,8.6-8.6,8.6c-4.7,0-8.6-3.8-8.6-8.6
			S490,202.8,494.8,202.8z"/>
		<path class="st8" d="M516.2,228.5v27.9c0,3.5-2.9,6.4-6.4,6.4v-23.6c0-5.9-4.8-10.7-10.7-10.7h-10.7c-1.2,0-2.1,1-2.1,2.1v8.6v2.1
			v2.1H469c-1.2,0-2.1,1-2.1,2.1v6.4H454v-6.4c0-1.2-1-2.1-2.1-2.1h-17.1v-2.1v-2.1v-8.6c0-1.2-1-2.1-2.1-2.1h-10.7
			c-5.9,0-10.7,4.8-10.7,10.7v23.6c-3.5,0-6.4-2.9-6.4-6.4v-27.9h-4.3v27.9c0,4.4,2.7,8.1,6.4,9.8v26.6h4.3v-25.7h2.1h2.1h17.1v23.6
			c0,1.2,1,2.1,2.1,2.1h6.4h2.1h2.1v-2.1v-32.2v-2.1h6.4H469h6.4v2.1v32.2v2.1h2.1h2.1h6.4c1.2,0,2.1-1,2.1-2.1v-23.6h17.1h2.1h2.1
			v25.7h4.3v-26.6c3.8-1.7,6.4-5.4,6.4-9.8v-27.9H516.2z M443.3,252.1H439h-12.9v-12.9h-4.3v15c0,1.2,1,2.1,2.1,2.1h15
			c1.2,0,2.1,1,2.1,2.1v30h-4.3V265c0-1.2-1-2.1-2.1-2.1h-19.3v-23.6c0-3.5,2.9-6.4,6.4-6.4h8.6v6.4v2.1v4.3c0,1.2,1,2.1,2.1,2.1
			h17.1v4.3H443.3z M486.2,262.8c-1.2,0-2.1,1-2.1,2.1v23.6h-4.3v-30c0-1.2,1-2.1,2.1-2.1h15c1.2,0,2.1-1,2.1-2.1v-15h-4.3v12.9
			h-12.9h-4.3h-6.4v-4.3h17.1c1.2,0,2.1-1,2.1-2.1v-4.3v-2.1v-6.4h8.6c3.5,0,6.4,2.9,6.4,6.4v23.6H486.2z"/>
		<path class="st12" d="M441.2,194.2v6.4c0,0.9,0.6,1.7,1.5,2c0.2,0.1,0.5,0.1,0.7,0.1c0.7,0,1.3-0.3,1.7-0.9l5.8-7.7h16.1
			c3.5,0,6.4-2.9,6.4-6.4v-8.6c0-3.5-2.9-6.4-6.4-6.4h-25.7c-3.5,0-6.4,2.9-6.4,6.4v8.6C434.7,191.4,437.6,194.2,441.2,194.2z
			 M439,179.2c0-1.2,1-2.1,2.1-2.1h25.7c1.2,0,2.1,1,2.1,2.1v8.6c0,1.2-1,2.1-2.1,2.1h-17.1c-0.7,0-1.3,0.3-1.7,0.9l-2.6,3.4v-2.1
			c0-1.2-1-2.1-2.1-2.1h-2.1c-1.2,0-2.1-1-2.1-2.1V179.2z"/>
		<rect x="443.3" y="181.4" class="st8" width="21.4" height="4.3"/>
		<rect x="458.3" y="226.4" class="st8" width="12.9" height="4.3"/>
		<path class="st12" d="M456.2,217.8c-3.5,0-6.4,2.9-6.4,6.4v8.6c0,3.5,2.9,6.4,6.4,6.4h17.1c3.5,0,6.4-2.9,6.4-6.4v-1.5l3.9-5.9
			c0.4-0.7,0.5-1.5,0.1-2.2c-0.4-0.7-1.1-1.1-1.9-1.1h-2.5c-0.9-2.5-3.3-4.3-6.1-4.3H456.2z M475.5,224.2c0,1.2,1,2.1,2.1,2.1h0.3
			l-2.1,3.1c-0.2,0.4-0.4,0.8-0.4,1.2v2.1c0,1.2-1,2.1-2.1,2.1h-17.1c-1.2,0-2.1-1-2.1-2.1v-8.6c0-1.2,1-2.1,2.1-2.1h17.1
			C474.5,222.1,475.5,223.1,475.5,224.2z"/>
		<rect x="449.7" y="207.1" class="st8" width="4.3" height="4.3"/>
		<rect x="458.3" y="207.1" class="st8" width="4.3" height="4.3"/>
		<rect x="466.9" y="207.1" class="st8" width="4.3" height="4.3"/>
	</g>
</g>
<g>
	<g>
		<g>
			<path class="st12" d="M413.2,834.7c-7.9,0-14.4,6.5-14.4,14.4c0,1.1,0.9,2.1,2.1,2.1h24.7c1.1,0,2.1-0.9,2.1-2.1
				C427.6,841.1,421.1,834.7,413.2,834.7z M403.1,847c0.8-4,4-7.2,8-8v3.9h4.1V839c4,0.8,7.2,4,8,8H403.1z"/>
		</g>
	</g>
	<g>
		<g>
			<path class="st8" d="M520.1,816.2h-3.6c-0.1-0.3-0.2-0.6-0.4-0.9l2.6-2.6c0.8-0.8,0.8-2.1,0-2.9l-8.7-8.7c-0.4-0.4-1-0.6-1.5-0.6
				c3.3-1.7,5.5-5.1,5.5-9.1v-53.5c0-5.7-4.6-10.3-10.3-10.3h-94.6c-5.7,0-10.3,4.6-10.3,10.3v53.5c0,5.7,4.6,10.3,10.3,10.3h26.8
				l-7.8,14.4h-0.6h-3.1c-4,0-7.2,3.2-7.2,7.2s3.2,7.2,7.2,7.2h44.2c0,1.1,0.9,2.1,2.1,2.1h3.6c0.1,0.3,0.2,0.6,0.4,0.9l-2.6,2.6
				c-0.8,0.8-0.8,2.1,0,2.9l8.7,8.7c0.8,0.8,2.1,0.8,2.9,0l2.6-2.6c0.3,0.1,0.6,0.2,0.9,0.4v3.6c0,1.1,0.9,2.1,2.1,2.1h12.3
				c1.1,0,2.1-0.9,2.1-2.1v-3.6c0.3-0.1,0.6-0.2,0.9-0.4l2.6,2.6c0.8,0.8,2.1,0.8,2.9,0l8.7-8.7c0.8-0.8,0.8-2.1,0-2.9l-2.6-2.6
				c0.1-0.3,0.2-0.6,0.4-0.9h3.6c1.1,0,2.1-0.9,2.1-2.1v-12.3C522.1,817.1,521.2,816.2,520.1,816.2z M402.9,738.1
				c0-3.4,2.8-6.2,6.2-6.2h94.6c3.4,0,6.2,2.8,6.2,6.2v43.2H402.9V738.1z M409.1,797.7c-3.4,0-6.2-2.8-6.2-6.2v-6.2h106.9v6.2
				c0,3.4-2.8,6.2-6.2,6.2h-2.1h-12.3h-15.9h-34H409.1z M507,801.2l-2.5,2.5c-0.3-0.1-0.6-0.2-0.9-0.4v-1.6
				C504.8,801.8,506,801.5,507,801.2z M487.2,801.8v1.6c-0.3,0.1-0.6,0.2-0.9,0.4l-1.9-1.9H487.2z M480.2,801.8l-1.8,1.8l-1.2-1.8
				H480.2z M468.7,826.5h-44.2c-1.7,0-3.1-1.4-3.1-3.1s1.4-3.1,3.1-3.1h3.1h1.8h39.3V826.5z M432.8,816.2l7.8-14.4h31.7l3.2,4.7
				l-3.3,3.3c-0.8,0.8-0.8,2.1,0,2.9l2.6,2.6c-0.1,0.3-0.2,0.6-0.4,0.9h-3.6H432.8z M518,828.5h-3c-0.9,0-1.7,0.6-2,1.4
				c-0.3,1-0.7,2-1.3,3c-0.4,0.8-0.3,1.8,0.4,2.4l2.1,2.1l-5.8,5.8l-2.1-2.1c-0.6-0.6-1.6-0.8-2.4-0.4c-1,0.5-2,0.9-3,1.3
				c-0.9,0.3-1.4,1.1-1.4,2v3h-8.2v-3c0-0.9-0.6-1.7-1.4-2c-1-0.3-2-0.7-3-1.3c-0.8-0.4-1.8-0.3-2.4,0.4l-2.1,2.1l-5.8-5.8l2.1-2.1
				c0.6-0.6,0.8-1.6,0.4-2.4c-0.5-1-0.9-2-1.3-3c-0.3-0.9-1.1-1.4-2-1.4h-3v-8.2h3c0.9,0,1.7-0.6,2-1.4c0.3-1,0.7-2,1.3-3
				c0.4-0.8,0.3-1.8-0.4-2.4l-2.1-2.1l5.8-5.8l2.1,2.1c0.6,0.6,1.6,0.8,2.4,0.4c1-0.5,2-0.9,3-1.3c0.9-0.3,1.4-1.1,1.4-2v-3h8.2v3
				c0,0.9,0.6,1.7,1.4,2c1,0.3,2,0.7,3,1.3c0.8,0.4,1.8,0.3,2.4-0.4l2.1-2.1l5.8,5.8l-2.1,2.1c-0.6,0.6-0.8,1.6-0.4,2.4
				c0.5,1,0.9,2,1.3,3c0.3,0.9,1.1,1.4,2,1.4h3V828.5z"/>
		</g>
	</g>
	<g>
		<g>
			<path class="st12" d="M495.4,812.1c-6.8,0-12.3,5.5-12.3,12.3s5.5,12.3,12.3,12.3c6.8,0,12.3-5.5,12.3-12.3
				S502.2,812.1,495.4,812.1z M495.4,832.6c-4.5,0-8.2-3.7-8.2-8.2s3.7-8.2,8.2-8.2c4.5,0,8.2,3.7,8.2,8.2S499.9,832.6,495.4,832.6z
				"/>
		</g>
	</g>
	<g>
		<g>
			<path class="st13" d="M439.3,743.6l-2.9-2.9L422,755.1c-0.8,0.8-0.8,2.1,0,2.9l14.4,14.4l2.9-2.9l-12.9-12.9L439.3,743.6z"/>
		</g>
	</g>
	<g>
		<g>
			<path class="st13" d="M484.5,755.1l-14.4-14.4l-2.9,2.9l12.9,12.9l-12.9,12.9l2.9,2.9l14.4-14.4
				C485.3,757.2,485.3,755.9,484.5,755.1z"/>
		</g>
	</g>
	<g>
		<g>
			
				<rect x="432.6" y="752.4" transform="matrix(0.4472 -0.8944 0.8944 0.4472 -424.2915 822.491)" class="st13" width="41.4" height="4.1"/>
		</g>
	</g>
	<g>
		<g>
			<rect x="479" y="768.9" class="st8" width="4.1" height="4.1"/>
		</g>
	</g>
	<g>
		<g>
			<rect x="487.2" y="768.9" class="st8" width="4.1" height="4.1"/>
		</g>
	</g>
	<g>
		<g>
			<rect x="495.4" y="768.9" class="st8" width="4.1" height="4.1"/>
		</g>
	</g>
</g>
<g>
	<path class="st8" d="M235.7,441.4h-39.5c-3.7,0-6.6,3-6.6,6.6v68.7c0,3,2.1,5.6,4.9,6.4v3.8c0,3.4,2.8,6.2,6.2,6.2h13.5v3.7h-26.7
		v-0.1c0-3.7-3-6.7-6.7-6.7c-3.7,0-6.7,3-6.7,6.7v0.1h-26.9v-3.7h13.5c3.4,0,6.2-2.8,6.2-6.2v-3.8c2.8-0.8,4.9-3.3,4.9-6.4v-34
		c0-1-0.8-1.8-1.8-1.8s-1.8,0.8-1.8,1.8v34c0,1.7-1.4,3-3,3h0h-39.4h0c-1.7,0-3-1.4-3-3v-57.1h45.5v14.7c0,1,0.8,1.8,1.8,1.8
		c1,0,1.8-0.8,1.8-1.8v-26.3c0-3.7-3-6.6-6.6-6.6h-39.5c-3.7,0-6.6,3-6.6,6.6v68.7c0,3,2.1,5.6,4.9,6.4v3.8c0,3.4,2.8,6.2,6.2,6.2
		h13.5v5.5c0,1,0.8,1.8,1.8,1.8h28.7v11h-8.5c-3.4,0-6.2,2.8-6.2,6.2v5.4c0,1,0.8,1.8,1.8,1.8h23.4c1,0,1.8-0.8,1.8-1.8
		c0-1-0.8-1.8-1.8-1.8H163v-3.5c0-1.4,1.2-2.6,2.6-2.6H196c1.4,0,2.6,1.2,2.6,2.6v3.5H193c-1,0-1.8,0.8-1.8,1.8c0,1,0.8,1.8,1.8,1.8
		h7.3c1,0,1.8-0.8,1.8-1.8v-5.4c0-3.4-2.8-6.2-6.2-6.2h-8.5v-11h28.5c1,0,1.8-0.8,1.8-1.8v-5.5h13.5c3.4,0,6.2-2.8,6.2-6.2v-3.8
		c2.8-0.8,4.9-3.3,4.9-6.4v-34c0-1-0.8-1.8-1.8-1.8s-1.8,0.8-1.8,1.8v34c0,1.7-1.4,3-3,3h0h-39.4h0c-1.7,0-3-1.4-3-3v-57.1h45.5
		v14.7c0,1,0.8,1.8,1.8,1.8s1.8-0.8,1.8-1.8v-26.3C242.3,444.4,239.3,441.4,235.7,441.4L235.7,441.4z M125.6,445h39.5
		c1.7,0,3,1.4,3,3v8h-45.5v-8C122.6,446.4,123.9,445,125.6,445z M127.4,527v-3.5h35.8v3.5c0,1.4-1.2,2.6-2.6,2.6H130
		C128.6,529.5,127.4,528.4,127.4,527L127.4,527z M177.7,551.4v-14.7c0-1.7,1.4-3.1,3.1-3.1c1.7,0,3.1,1.4,3.1,3.1v14.7H177.7z
		 M233.8,523.4v3.5c0,1.4-1.2,2.6-2.6,2.6h-30.7c-1.4,0-2.6-1.2-2.6-2.6v-3.5H233.8z M193.2,456v-8c0-1.7,1.4-3,3-3h39.5
		c1.7,0,3,1.4,3,3v8H193.2z"/>
	<path class="st8" d="M163.9,464.7c0-1-0.8-1.8-1.8-1.8h-33.6c-1,0-1.8,0.8-1.8,1.8V497c0,1,0.8,1.8,1.8,1.8h33.6
		c1,0,1.8-0.8,1.8-1.8L163.9,464.7L163.9,464.7z M160.3,495.2h-30v-28.8h30L160.3,495.2L160.3,495.2z"/>
	<path class="st12" d="M163.9,504.8c0-1-0.8-1.8-1.8-1.8h-33.6c-1,0-1.8,0.8-1.8,1.8s0.8,1.8,1.8,1.8h33.6
		C163.1,506.6,163.9,505.8,163.9,504.8z"/>
	<path class="st8" d="M128.6,510.5c-1,0-1.8,0.8-1.8,1.8s0.8,1.8,1.8,1.8h26.3c1,0,1.8-0.8,1.8-1.8s-0.8-1.8-1.8-1.8H128.6z"/>
	<path class="st12" d="M128.6,452.3h4.9c1,0,1.8-0.8,1.8-1.8c0-1-0.8-1.8-1.8-1.8h-4.9c-1,0-1.8,0.8-1.8,1.8
		C126.7,451.5,127.6,452.3,128.6,452.3z"/>
	<path class="st12" d="M139.3,492.3c1,0,1.8-0.8,1.8-1.8v-7.9h8.6v7.9c0,1,0.8,1.8,1.8,1.8c1,0,1.8-0.8,1.8-1.8v-17
		c0-0.5-0.2-0.9-0.5-1.3l-2.4-2.4c-0.3-0.3-0.8-0.5-1.3-0.5h-7.3c-0.5,0-0.9,0.2-1.3,0.5l-2.4,2.4c-0.3,0.3-0.5,0.8-0.5,1.3v17
		C137.5,491.4,138.3,492.3,139.3,492.3L139.3,492.3z M142.4,472.8h5.8l1.4,1.4v4.7h-8.6v-4.7L142.4,472.8z"/>
	<path class="st12" d="M234.5,464.7c0-1-0.8-1.8-1.8-1.8h-33.6c-1,0-1.8,0.8-1.8,1.8V497c0,1,0.8,1.8,1.8,1.8h33.6
		c1,0,1.8-0.8,1.8-1.8L234.5,464.7L234.5,464.7z M230.9,495.2h-30v-28.8h30L230.9,495.2L230.9,495.2z"/>
	<path class="st8" d="M234.5,504.8c0-1-0.8-1.8-1.8-1.8h-33.6c-1,0-1.8,0.8-1.8,1.8s0.8,1.8,1.8,1.8h33.6
		C233.7,506.6,234.5,505.8,234.5,504.8L234.5,504.8z"/>
	<path class="st12" d="M199.1,510.5c-1,0-1.8,0.8-1.8,1.8s0.8,1.8,1.8,1.8h26.3c1,0,1.8-0.8,1.8-1.8s-0.8-1.8-1.8-1.8H199.1z"/>
	<path class="st8" d="M204,448.7h-4.9c-1,0-1.8,0.8-1.8,1.8c0,1,0.8,1.8,1.8,1.8h4.9c1,0,1.8-0.8,1.8-1.8
		C205.8,449.5,205,448.7,204,448.7z"/>
	<path class="st8" d="M209.8,492.4h7.4c2.2,0,4.2-1.1,5.5-2.9c1.2-1.8,1.5-4.2,0.7-6.3c-0.6-1.5-1.7-2.7-3.1-3.4
		c1.4-2,1.5-4.7,0.5-6.8c-1-1.9-2.9-3.3-5-3.6c-0.3,0-0.6-0.1-0.9-0.1h-4.9c-1,0-1.8,0.8-1.8,1.8v19.5
		C208,491.6,208.8,492.4,209.8,492.4L209.8,492.4z M220.2,485.8c0,1.7-1.4,3-3,3h-5.5v-6.1h5.5C218.9,482.6,220.2,484.1,220.2,485.8
		z M211.6,472.9h3.1c1.7,0,3,1.4,3,3.1c0,1.7-1.3,3.1-3,3.1h-3.1V472.9z"/>
</g>
<rect x="341.2" y="303.9" class="st18" width="238.5" height="56"/>
<text transform="matrix(1 0 0 1 374.2692 321.7525)"><tspan x="0" y="0" class="st8 st19 st20">User-research </tspan><tspan x="26.1" y="28.8" class="st8 st19 st20">&amp; analysis</tspan></text>
<rect x="341.2" y="863.3" class="st18" width="238.5" height="28"/>
<text transform="matrix(1 0 0 1 362.2936 881.0837)" class="st8 st19 st20">Implementation</text>
<rect x="61.4" y="574.8" class="st18" width="238.5" height="53.6"/>
<text transform="matrix(1 0 0 1 84.6479 592.5923)"><tspan x="0" y="0" class="st8 st19 st20">Measurement &amp; </tspan><tspan x="52.6" y="28.8" class="st8 st19 st20">testing</tspan></text>
<rect x="16" y="158" class="st18" width="238.5" height="26.8"/>
<text transform="matrix(1 0 0 1 38.6402 175.8175)" class="st8 st19 st20">Design strategy</text>
<rect x="620.5" y="574.8" class="st18" width="238.5" height="53.6"/>
<text transform="matrix(1 0 0 1 697.7 592.5923)"><tspan x="0" y="0" class="st8 st19 st20">Design </tspan><tspan x="-19.8" y="28.8" class="st8 st19 st20">&amp; ideation</tspan></text>
<g>
	<g>
		<g>
			<path class="st8" d="M797.4,462.9c-1.7-1.7-6.6-6.6-8.3-8.3c-0.7-0.7-1.8-0.7-2.4,0c-0.7,0.7-0.7,1.8,0,2.4l3.7,3.7l-39.7,39.7
				l-13.3-13.3l5-5l3.5,3.5c0.7,0.7,1.8,0.7,2.4,0c0.7-0.7,0.7-1.8,0-2.4l-3.5-3.5l6.2-6.2l3.5,3.5c0.7,0.7,1.8,0.7,2.4,0
				c0.7-0.7,0.7-1.8,0-2.4l-3.5-3.5l6.2-6.2l3.5,3.5c0.7,0.7,1.8,0.7,2.4,0c0.7-0.7,0.7-1.8,0-2.4l-3.5-3.5l6.2-6.2l3.5,3.5
				c0.7,0.7,1.8,0.7,2.4,0c0.7-0.7,0.7-1.8,0-2.4l-3.5-3.5l5.9-5.9c0.1-0.1,0.3-0.2,0.4-0.2s0.2,0,0.4,0.2l3.5,3.5
				c0.7,0.7,1.8,0.7,2.4,0c0.7-0.7,0.7-1.8,0-2.4l-3.5-3.5c-1.5-1.5-4.1-1.5-5.6,0L735,484.7l-21.4-21.4c-0.1-0.1-0.4-0.3-0.6-0.4
				c-0.5-0.2-18.3-7.9-18.9-8.1c-2.1-0.9-4.2,1.2-3.3,3.3c0,0,0,0,0,0c0.6,1.4,4.3,10.1,4.9,11.4l3.2,7.5c0.1,0.2,0.2,0.4,0.4,0.6
				l21.4,21.4l-38.5,38.5c-1.6,1.6-1.6,4.1,0,5.6l17.5,17.5c1.6,1.6,4.1,1.6,5.6,0l38.5-38.5c1.1,1.1,32.3,32.3,33.5,33.5
				c1,1,2.3,1.5,3.7,1.5s2.7-0.5,3.7-1.5l7-7c2-2,2-5.3,0-7.4c-6.8-6.8-26.8-26.8-33.5-33.5l39.3-39.3
				C799,466.9,799,464.4,797.4,462.9z M697.7,465.7l-3-7l7,3L697.7,465.7z M699.2,469.2l5.9-5.9l4.1,1.8c-7.1,7.1,0.2-0.2-8.3,8.3
				L699.2,469.2z M697.4,553.6l-12.9-12.9c-0.1-0.1-0.2-0.3-0.2-0.4c0-0.1,0-0.2,0.2-0.4l5.9-5.9l3.5,3.5c0.7,0.7,1.8,0.7,2.4,0
				c0.7-0.7,0.7-1.8,0-2.4l-3.5-3.5l6.2-6.2l3.5,3.5c0.7,0.7,1.8,0.7,2.4,0c0.7-0.7,0.7-1.8,0-2.4l-3.5-3.5l6.2-6.2l3.5,3.5
				c0.7,0.7,1.8,0.7,2.4,0c0.7-0.7,0.7-1.8,0-2.4l-3.5-3.5l6.2-6.2l3.5,3.5c0.7,0.7,1.8,0.7,2.4,0c0.7-0.7,0.7-1.8,0-2.4l-3.5-3.5
				l4.2-4.2l13.3,13.3L697.4,553.6z M702.8,558.2c-0.1,0.1-0.3,0.2-0.4,0.2c0,0-0.1,0-0.1,0c-0.1,0-0.2-0.1-0.3-0.1l-2.2-2.2
				l38.9-38.9l2.6,2.6L702.8,558.2z M789.1,543.7c0.7,0.7,0.7,1.8,0,2.5l-7,7c-0.3,0.3-0.8,0.5-1.2,0.5s-0.9-0.2-1.2-0.5l-6.2-6.2
				c1.2-1.2,8.3-8.3,9.5-9.5L789.1,543.7z M776.3,530.8l4.2,4.2c-1.2,1.2-8.3,8.3-9.5,9.5l-4.2-4.2
				C767.9,539.2,775.2,531.9,776.3,530.8z M773.8,528.4c-2.3,2.3-2,2-3.5,3.5l-22.2-22.2c-0.7-0.7-1.8-0.7-2.4,0
				c-0.7,0.7-0.7,1.8,0,2.4l22.2,22.2c-0.7,0.7-2.8,2.8-3.5,3.5c-1.8-1.8-58.7-58.7-61.5-61.5l3.5-3.5l33.7,33.7
				c0.7,0.7,1.8,0.7,2.4,0c0.7-0.7,0.7-1.8,0-2.4l-33.7-33.7c2.6-2.6,1.8-1.8,3.5-3.5C715.1,469.6,769.1,523.7,773.8,528.4z
				 M795,466l-39.3,39.3l-2.6-2.6l39.7-39.7l2.2,2.2C795.2,465.5,795.2,465.8,795,466z"/>
		</g>
	</g>
	
		<rect x="690.6" y="533.6" transform="matrix(0.7071 -0.7071 0.7071 0.7071 -168.2355 664.5659)" class="st12" width="55" height="3.4"/>
	
		<rect x="743.7" y="480" transform="matrix(0.7071 -0.7071 0.7071 0.7071 -114.5976 686.7888)" class="st12" width="56.1" height="3.4"/>
	
		<rect x="763.6" y="532.6" transform="matrix(0.7071 -0.7071 0.7071 0.7071 -152.2199 701.2223)" class="st12" width="13.4" height="3.4"/>
	
		<rect x="770.3" y="539.3" transform="matrix(0.7071 -0.7071 0.7071 0.7071 -154.97 707.8303)" class="st12" width="13.4" height="3.4"/>
	<polygon class="st12" points="697.7,465.7 699.2,469.2 705.1,463.2 701.7,461.8 	"/>
</g>
<path class="st12" d="M163.2,126.2h-7.3v-19.6c0-1.4-1.2-2.6-2.6-2.6c-1.4,0-2.6,1.2-2.6,2.6v19.6h-33.7"/>
<path class="st15" d="M360.9,175.9l24.2-6.5c1.2-0.3,1.9-1.6,1.4-2.8l-9.2-23.2"/>
<path class="st15" d="M238.7,128.8c0,0,28.2-1.4,72.8,10.1c44.4,11.5,72.8,27.2,72.8,27.2"/>
<g>
	<path class="st16" d="M360.3,457.4c0,0,29.3-12.9,100.1-12.9s101.9,12.9,101.9,12.9"/>
</g>
<g>
	<path class="st16" d="M562.5,559.4c0,0-29.3,12.9-100.1,12.9s-101.9-12.9-101.9-12.9"/>
</g>
<path class="st15" d="M685.7,379.6l22.9,10.3c1.1,0.5,2.5-0.1,2.9-1.3l7.5-23.8"/>
<path class="st15" d="M574.9,745.9l-10.5,22.8c-0.5,1.1,0.1,2.5,1.3,2.9l23.7,7.7"/>
<path class="st15" d="M254,672.8l-24.2-6.6c-1.2-0.3-2.4,0.5-2.6,1.7l-3.7,24.7"/>
<path class="st15" d="M341.4,277.2l7.6-23.9c0.4-1.2-0.4-2.5-1.6-2.7l-24.5-4.7"/>
<path class="st15" d="M382.5,547.7l-23.3,9.2c-1.2,0.5-1.7,1.8-1.1,3l11.8,22"/>
<path class="st15" d="M540.6,469.6l23-9.9c1.2-0.5,1.6-1.9,1-3l-12.5-21.6"/>
<rect x="675.1" y="670.4" transform="matrix(0.8302 0.5575 -0.5575 0.8302 492.3897 -267.9446)" class="st9" width="21.8" height="7.7"/>
</svg>
